# xmcd
#
# Track frame offsets: 
#        150
#        11294
#        24067
#        36364
#        47652
#        57792
#        71503
#        82107
#        96352
#        112784
#        125406
#        143638
#        155088
#        167666
#        178424
#        191737
#        204812
#        221986
#        235629
#        250556
#        262329
#        278169
#
# Disc length: 3886 seconds
#
# Revision: 0
# Processed by: cddbd v1.5.2PL0 Copyright (c) Steve Scherf et al.
# Submitted via: ExactAudioCopy v1.1
#
DISCID=330f2c16
DTITLE=Various Artists  - All-Time Country Favourites 1970-1974 Disc 1
DYEAR=2010
DGENRE=Country
TTITLE0=Glen Campbell - It's only make believe
TTITLE1=Lynn Anderson - Top of the world
TTITLE2=George Jones - The door
TTITLE3=Tammy Wynette - Good lovin' ( makes it right )
TTITLE4=Charley Pride - Is anybody going to San Antone
TTITLE5=Loretta Lynn - Coal miner's daughter
TTITLE6=Sonny James - Empty arms
TTITLE7=George Jones and Tammy Wynette - The ceremony
TTITLE8=Ray Price - I won't mention it again
TTITLE9=Porter Waggoner and Dolly Parton - Please don't stop loving me
TTITLE10=John Denver - Leaving on a jet plane
TTITLE11=Donna Fargo - The happiest girl in the whole USA
TTITLE12=Hank Snow - Hello love
TTITLE13=Dolly Parton - Love is like a butterfly
TTITLE14=George Jones and Tammy Wynette  - We're gonna hold on
TTITLE15=Johnny Cash - The man in black
TTITLE16=Jeannie C. Riley - Oh, singer
TTITLE17=Conway Twitty - You've never been this far before
TTITLE18=Don Gibson - Woman ( sensuous woman )
TTITLE19=Jerry Wallace - If you leave me tonight I will cry
TTITLE20=Ray Stevens - Everything is beautiful
TTITLE21=Waylon Jennings - Good hearted woman
EXTD=
EXTT0=
EXTT1=
EXTT2=
EXTT3=
EXTT4=
EXTT5=
EXTT6=
EXTT7=
EXTT8=
EXTT9=
EXTT10=
EXTT11=
EXTT12=
EXTT13=
EXTT14=
EXTT15=
EXTT16=
EXTT17=
EXTT18=
EXTT19=
EXTT20=
EXTT21=
PLAYORDER=
